<?xml version="1.0" standalone="no"?>
<!DOCTYPE svg PUBLIC "-//W3C//DTD SVG 20010904//EN"
 "http://www.w3.org/TR/2001/REC-SVG-20010904/DTD/svg10.dtd">
<svg version="1.0" xmlns="http://www.w3.org/2000/svg"
 width="1080.000000pt" height="1080.000000pt" viewBox="0 0 1080.000000 1080.000000"
 preserveAspectRatio="xMidYMid meet">
<metadata>
Created by potrace 1.14, written by Peter Selinger 2001-2017
</metadata>
<g transform="translate(0.000000,1080.000000) scale(0.100000,-0.100000)"
fill="#000000" stroke="none">
<path d="M5075 10609 c-952 -54 -1921 -397 -2699 -953 -1014 -726 -1726 -1763
-2030 -2956 -93 -366 -138 -669 -158 -1053 -41 -829 123 -1676 470 -2434 326
-711 835 -1365 1451 -1866 588 -478 1258 -814 1994 -1002 333 -85 641 -133
1002 -157 239 -16 351 -16 590 0 361 24 669 72 1005 158 625 159 1207 429
1724 798 1015 726 1727 1763 2030 2956 86 336 134 644 158 1005 16 239 16 351
0 590 -24 361 -72 669 -157 1002 -160 629 -429 1210 -799 1727 -726 1014
-1763 1726 -2956 2030 -539 137 -1064 187 -1625 155z m1215 -2313 c815 -91
1513 -609 1833 -1357 99 -233 153 -449 177 -714 14 -149 13 -1490 0 -1592 -46
-341 -270 -638 -578 -768 -180 -75 -400 -97 -587 -59 -167 35 -335 125 -468
253 -49 47 -72 63 -81 56 -7 -6 -49 -37 -93 -71 -254 -192 -507 -264 -935
-264 -271 0 -436 24 -608 87 -237 88 -438 239 -589 443 -107 143 -168 272
-219 459 l-27 96 0 525 c0 579 0 579 67 770 126 356 425 655 786 784 155 55
246 68 532 73 397 8 563 -21 795 -137 346 -173 587 -471 679 -840 38 -155 46
-290 46 -856 l0 -511 31 -61 c33 -67 86 -119 158 -153 69 -34 186 -33 261 2
67 31 122 85 158 153 l27 51 0 785 0 785 -24 115 c-65 314 -202 582 -412 804
-256 271 -551 427 -918 487 -117 19 -158 20 -725 16 -647 -4 -639 -4 -869 -62
-262 -67 -553 -211 -771 -382 -103 -81 -301 -284 -377 -385 -219 -295 -353
-622 -403 -986 -25 -176 -22 -734 3 -907 68 -457 269 -854 595 -1180 349 -348
780 -553 1271 -605 76 -8 309 -10 750 -8 662 5 643 4 860 47 129 26 342 100
470 164 33 16 128 69 211 118 84 49 159 91 167 95 11 4 57 -64 180 -269 l165
-274 -152 -90 c-202 -121 -263 -153 -392 -209 -239 -103 -494 -174 -759 -211
-115 -16 -206 -18 -810 -18 -602 0 -695 2 -815 18 -625 85 -1150 338 -1584
765 -442 434 -713 974 -802 1592 -22 156 -31 720 -14 914 80 951 631 1779
1471 2215 311 162 667 268 1004 300 160 15 1174 13 1315 -3z"/>
<path d="M5265 6356 c-135 -31 -217 -77 -321 -180 -96 -96 -153 -201 -179
-333 -24 -117 -17 -849 8 -933 53 -178 179 -331 337 -409 133 -65 193 -73 480
-68 184 3 259 8 300 20 174 51 334 183 408 338 66 139 67 145 67 619 0 388 -2
430 -19 485 -36 117 -84 195 -170 281 -89 88 -142 122 -256 162 -73 26 -83 26
-335 29 -191 2 -276 -1 -320 -11z"/>
</g>
</svg>
